<?xml version="1.0" encoding="utf-8"?>
<!-- Generator: Adobe Illustrator 21.1.0, SVG Export Plug-In . SVG Version: 6.00 Build 0)  -->
<svg version="1.1" id="Layer_1" xmlns="http://www.w3.org/2000/svg" xmlns:xlink="http://www.w3.org/1999/xlink" x="0px" y="0px"
	 viewBox="0 0 1084.8 608.8" style="enable-background:new 0 0 1084.8 608.8;" xml:space="preserve">
<style type="text/css">
	.st0{fill:#F0E302;}
	.st1{fill:#FFFFFF;}
</style>
<g>
	<g>
		<path class="st0" d="M891.2,138.1c-28.5,0-51.6,23.1-51.6,51.6s23.1,51.6,51.6,51.6c28.5,0,51.6-23.1,51.6-51.6
			S919.7,138.1,891.2,138.1z M891.2,229.4c-21.9,0-39.7-17.8-39.7-39.7s17.8-39.7,39.7-39.7c21.9,0,39.7,17.8,39.7,39.7
			S913.1,229.4,891.2,229.4z"/>
		<path class="st0" d="M891.2,161.9c-15.4,0-27.9,12.5-27.9,27.9s12.5,27.9,27.9,27.9c15.4,0,27.9-12.5,27.9-27.9
			S906.6,161.9,891.2,161.9z"/>
	</g>
	<g>
		<path class="st1" d="M740.1,361.1l28.2-87.1c0.8-2.4,3-4.1,5.6-4.1h17.2c2.6,0,4.8,1.6,5.6,4.1l28,87.1l22.8-77.8
			c2.2-7.6,9.2-12.8,17.1-12.8h17.7l-38.8,120.9c-2.4,7.4-9.2,12.4-16.9,12.4h-10.5c-2.1,0-4-1.4-4.7-3.4l-28.7-87l-28.4,87
			c-0.7,2-2.5,3.4-4.7,3.4H739c-7.7,0-14.5-5-16.9-12.3l-39.3-120.9h17c7.9,0,14.8,5.2,17.1,12.7L740.1,361.1z"/>
		<path class="st1" d="M609,405.7c-40.3,0-70.1-30.8-70.1-68.6c0-38.1,30-69.4,70.6-69.4s70.4,30.8,70.4,68.9
			C679.8,374.4,649.8,405.7,609,405.7z M609,294.3c-24.3,0-39.8,19-39.8,42.3c0,23.5,16.8,42.8,40.3,42.8c24.5,0,40.1-19,40.1-42.3
			C649.5,313.6,632.7,294.3,609,294.3z"/>
		<path class="st1" d="M430.4,402.7v-165c0-9.8,8-17.8,17.8-17.8h12.5v165c0,9.8-8,17.8-17.8,17.8H430.4z"/>
		<path class="st1" d="M487.5,402.7v-165c0-9.8,8-17.8,17.8-17.8h12.5v165c0,9.8-8,17.8-17.8,17.8H487.5z"/>
		<path class="st1" d="M348.6,380.9c10.1,0,18.1-2.6,25.6-7.4c6.7-4.4,15.4-3.7,21.4,1.6l6.6,5.8c-12.5,15-29.8,24.8-54.1,24.8
			c-38.3,0-67.9-27.8-67.9-68.9c0-38.1,26.8-69.1,64.6-69.1c42.1,0,63.4,33.1,63.4,71.4c0,1.3-0.1,2.6-0.1,3.9
			c-0.2,2.5-2.2,4.4-4.7,4.4h-92.8C314.1,368.9,329.1,380.9,348.6,380.9z M378.2,327.3c-2-19.5-13.5-34.8-33.6-34.8
			c-18.5,0-31.6,14.3-34.3,34.8H378.2z"/>
		<path class="st1" d="M259.1,270.5c-7.9,0-14.9,5-17.5,12.4c0,0-16.4,46.2-30.1,84.9l-32.9-85.9c-2.6-6.9-9.2-11.4-16.6-11.4H142
			l56.2,134.9c-3.2,9-5.2,14.7-5.2,14.7c-5.9,15-19.3,24.8-34.3,26.7c-2.9,0.4-5.3,3-5.3,5.9v16.8c0,0.7,0.5,1.2,1.2,1.2
			c27.2-0.5,52.7-17.1,63.1-44l60-156.1H259.1z"/>
	</g>
</g>
</svg>
