<svg width="107" height="35" viewBox="0 0 107 35" fill="none" xmlns="http://www.w3.org/2000/svg">
<rect width="107" height="35" rx="17.5" fill="#080809"/>
<g clip-path="url(#clip0_202_1450)">
<path d="M28.5075 17.0018L18.4639 26.673C17.9936 26.3516 17.7144 25.817 17.7193 25.2473V8.75626C17.7144 8.18663 17.9936 7.65199 18.4639 7.33057L28.5075 17.0018Z" fill="#2196F3"/>
<path d="M32.0217 13.6236L28.5074 17.0018L18.4639 7.33053C18.5017 7.3012 18.5411 7.27392 18.5819 7.2488C19.1127 6.92708 19.7757 6.9167 20.3164 7.22156L32.0217 13.6236Z" fill="#4CAF50"/>
<path d="M36.2806 17.0018C36.2872 17.6448 35.9377 18.2388 35.3725 18.5456L32.0217 20.3799L28.5073 17.0018L32.0217 13.6237L35.3725 15.458C35.9377 15.7647 36.2872 16.3587 36.2806 17.0018Z" fill="#F0BB1F"/>
<path d="M32.0217 20.3798L20.3164 26.7819C19.7745 27.0821 19.114 27.0717 18.5819 26.7547C18.5411 26.7296 18.5017 26.7023 18.4639 26.6729L28.5074 17.0017L32.0217 20.3798Z" fill="#F15A2B"/>
</g>
<path d="M48.0242 11.88H45.2162V13H46.7122C46.5122 13.536 46.0242 13.864 45.2802 13.864C44.1922 13.864 43.5202 13.168 43.5202 12.216C43.5202 11.232 44.2242 10.536 45.1682 10.536C45.8002 10.536 46.3042 10.824 46.5362 11.192L47.6242 10.568C47.1522 9.81596 46.2482 9.28796 45.1762 9.28796C43.5282 9.28796 42.2402 10.584 42.2402 12.208C42.2402 13.816 43.5042 15.112 45.2642 15.112C46.8322 15.112 48.0242 14.072 48.0242 12.36V11.88Z" fill="white"/>
<path d="M49.6259 13.768V12.776H51.6259V11.56H49.6259V10.632H51.8259V9.39996H48.3459V15H51.8659V13.768H49.6259Z" fill="white"/>
<path d="M55.948 9.39996H51.788V10.632H53.228V15H54.508V10.632H55.948V9.39996Z" fill="white"/>
<path d="M57.7084 9.39996V15H58.9884V9.39996H57.7084Z" fill="white"/>
<path d="M63.3105 9.39996H59.1505V10.632H60.5905V15H61.8705V10.632H63.3105V9.39996Z" fill="white"/>
<path d="M67.7429 15.112C69.3509 15.112 70.6549 13.848 70.6549 12.2C70.6549 10.552 69.3509 9.28796 67.7429 9.28796C66.1349 9.28796 64.8309 10.552 64.8309 12.2C64.8309 13.848 66.1349 15.112 67.7429 15.112ZM67.7429 13.864C66.8309 13.864 66.1109 13.2 66.1109 12.2C66.1109 11.2 66.8309 10.536 67.7429 10.536C68.6549 10.536 69.3749 11.2 69.3749 12.2C69.3749 13.2 68.6549 13.864 67.7429 13.864Z" fill="white"/>
<path d="M74.0955 9.39996V12.44L71.9355 9.39996H70.9755V15H72.2555V11.96L74.4155 15H75.3755V9.39996H74.0955Z" fill="white"/>
<path d="M48.0242 21.392V21.608C48.0242 22.3066 47.7762 22.896 47.2802 23.376C46.7842 23.8506 46.1309 24.088 45.3202 24.088C44.4669 24.088 43.7629 23.8106 43.2082 23.256C42.6536 22.696 42.3762 22.0106 42.3762 21.2C42.3762 20.3893 42.6509 19.7066 43.2002 19.152C43.7496 18.592 44.4456 18.312 45.2882 18.312C45.8002 18.312 46.2696 18.4346 46.6962 18.68C47.1282 18.9253 47.4616 19.2533 47.6962 19.664L47.3202 19.888C47.1336 19.536 46.8562 19.2533 46.4882 19.04C46.1256 18.8266 45.7256 18.72 45.2882 18.72C44.5629 18.72 43.9656 18.96 43.4962 19.44C43.0322 19.9146 42.8002 20.5013 42.8002 21.2C42.8002 21.8986 43.0349 22.488 43.5042 22.968C43.9736 23.4426 44.5789 23.68 45.3202 23.68C45.9762 23.68 46.5069 23.5013 46.9122 23.144C47.3176 22.7866 47.5442 22.336 47.5922 21.792H45.2162V21.392H48.0242Z" fill="white"/>
<path d="M53.7029 23.248C53.1429 23.808 52.4602 24.088 51.6549 24.088C50.8495 24.088 50.1669 23.808 49.6069 23.248C49.0469 22.6826 48.7669 22 48.7669 21.2C48.7669 20.4 49.0469 19.72 49.6069 19.16C50.1669 18.5946 50.8495 18.312 51.6549 18.312C52.4602 18.312 53.1429 18.5946 53.7029 19.16C54.2629 19.72 54.5429 20.4 54.5429 21.2C54.5429 22 54.2629 22.6826 53.7029 23.248ZM49.9029 22.96C50.3829 23.44 50.9669 23.68 51.6549 23.68C52.3429 23.68 52.9242 23.44 53.3989 22.96C53.8789 22.4746 54.1189 21.888 54.1189 21.2C54.1189 20.512 53.8789 19.928 53.3989 19.448C52.9242 18.9626 52.3429 18.72 51.6549 18.72C50.9669 18.72 50.3829 18.9626 49.9029 19.448C49.4282 19.928 49.1909 20.512 49.1909 21.2C49.1909 21.888 49.4282 22.4746 49.9029 22.96Z" fill="white"/>
<path d="M60.2341 23.248C59.6741 23.808 58.9914 24.088 58.1861 24.088C57.3808 24.088 56.6981 23.808 56.1381 23.248C55.5781 22.6826 55.2981 22 55.2981 21.2C55.2981 20.4 55.5781 19.72 56.1381 19.16C56.6981 18.5946 57.3808 18.312 58.1861 18.312C58.9914 18.312 59.6741 18.5946 60.2341 19.16C60.7941 19.72 61.0741 20.4 61.0741 21.2C61.0741 22 60.7941 22.6826 60.2341 23.248ZM56.4341 22.96C56.9141 23.44 57.4981 23.68 58.1861 23.68C58.8741 23.68 59.4554 23.44 59.9301 22.96C60.4101 22.4746 60.6501 21.888 60.6501 21.2C60.6501 20.512 60.4101 19.928 59.9301 19.448C59.4554 18.9626 58.8741 18.72 58.1861 18.72C57.4981 18.72 56.9141 18.9626 56.4341 19.448C55.9594 19.928 55.7221 20.512 55.7221 21.2C55.7221 21.888 55.9594 22.4746 56.4341 22.96Z" fill="white"/>
<path d="M67.4774 21.392V21.608C67.4774 22.3066 67.2294 22.896 66.7334 23.376C66.2374 23.8506 65.584 24.088 64.7734 24.088C63.92 24.088 63.216 23.8106 62.6614 23.256C62.1067 22.696 61.8294 22.0106 61.8294 21.2C61.8294 20.3893 62.104 19.7066 62.6534 19.152C63.2027 18.592 63.8987 18.312 64.7414 18.312C65.2534 18.312 65.7227 18.4346 66.1494 18.68C66.5814 18.9253 66.9147 19.2533 67.1494 19.664L66.7734 19.888C66.5867 19.536 66.3094 19.2533 65.9414 19.04C65.5787 18.8266 65.1787 18.72 64.7414 18.72C64.016 18.72 63.4187 18.96 62.9494 19.44C62.4854 19.9146 62.2534 20.5013 62.2534 21.2C62.2534 21.8986 62.488 22.488 62.9574 22.968C63.4267 23.4426 64.032 23.68 64.7734 23.68C65.4294 23.68 65.96 23.5013 66.3654 23.144C66.7707 22.7866 66.9974 22.336 67.0454 21.792H64.6694V21.392H67.4774Z" fill="white"/>
<path d="M68.964 23.6H71.604V24H68.54V18.4H68.964V23.6Z" fill="white"/>
<path d="M72.9093 23.6H75.7093V24H72.4853V18.4H75.6693V18.8H72.9093V20.976H75.4693V21.376H72.9093V23.6Z" fill="white"/>
<path d="M80.7877 18.4C81.2891 18.4 81.7051 18.5653 82.0357 18.896C82.3664 19.2266 82.5317 19.64 82.5317 20.136C82.5317 20.632 82.3664 21.0453 82.0357 21.376C81.7051 21.7013 81.2891 21.864 80.7877 21.864H79.3077V24H78.8837V18.4H80.7877ZM80.7877 21.464C81.1717 21.464 81.4864 21.3386 81.7317 21.088C81.9824 20.8373 82.1077 20.52 82.1077 20.136C82.1077 19.7466 81.9824 19.4266 81.7317 19.176C81.4864 18.9253 81.1717 18.8 80.7877 18.8H79.3077V21.464H80.7877Z" fill="white"/>
<path d="M84.003 23.6H86.643V24H83.579V18.4H84.003V23.6Z" fill="white"/>
<path d="M91.4486 24L90.9046 22.576H88.0966L87.5526 24H87.1046L89.2806 18.4H89.7286L91.8966 24H91.4486ZM88.2566 22.176H90.7526L89.5046 18.92L88.2566 22.176Z" fill="white"/>
<path d="M95.8811 18.4L93.8411 21.696V24H93.4171V21.696L91.3771 18.4H91.8571L93.6331 21.288L95.4011 18.4H95.8811Z" fill="white"/>
<defs>
<clipPath id="clip0_202_1450">
<rect width="20" height="20" fill="white" transform="translate(17 7)"/>
</clipPath>
</defs>
</svg>
