<svg width="47" height="48" viewBox="0 0 47 48" fill="none" xmlns="http://www.w3.org/2000/svg">
<rect width="47" height="48" rx="13" fill="#F15A2B"/>
<path d="M32.8184 31.9287C32.3682 31.9379 31.926 31.8091 31.5512 31.5596C31.2723 31.3773 30.9462 31.2802 30.613 31.2802C30.2797 31.2802 29.9537 31.3773 29.6747 31.5596C29.2961 31.8006 28.8566 31.9287 28.4077 31.9287C27.9589 31.9287 27.5194 31.8006 27.1408 31.5596C26.8618 31.3771 26.5357 31.2799 26.2023 31.2799C25.869 31.2799 25.5429 31.3771 25.2639 31.5596C24.8853 31.8006 24.4458 31.9287 23.9969 31.9287C23.5481 31.9287 23.1086 31.8006 22.7299 31.5596C22.4512 31.3772 22.1253 31.2801 21.7922 31.2801C21.459 31.2801 21.1331 31.3772 20.8544 31.5596C20.5111 31.7877 20.1105 31.9145 19.6985 31.9254L19.6758 31.2768C19.9801 31.2695 20.2757 31.1732 20.5258 30.9998C20.9044 30.7588 21.3438 30.6308 21.7925 30.6308C22.2412 30.6308 22.6806 30.7588 23.0591 30.9998C23.3381 31.1821 23.6641 31.2793 23.9974 31.2793C24.3307 31.2793 24.6567 31.1821 24.9357 30.9998C25.3143 30.7586 25.754 30.6304 26.203 30.6304C26.6519 30.6304 27.0916 30.7586 27.4703 30.9998C27.7492 31.1821 28.0753 31.2793 28.4085 31.2793C28.7418 31.2793 29.0679 31.1821 29.3468 30.9998C29.7255 30.7588 30.165 30.6308 30.6138 30.6308C31.0626 30.6308 31.5021 30.7588 31.8808 30.9998C32.1604 31.1826 32.4872 31.2799 32.8213 31.2799C33.1554 31.2799 33.4822 31.1826 33.7618 30.9998C34.1362 30.751 34.5776 30.6225 35.027 30.6314V31.28C34.6924 31.2708 34.3636 31.3687 34.0884 31.5592C33.7127 31.8091 33.2695 31.938 32.8184 31.9287Z" fill="white"/>
<path d="M15.1783 31.9287C14.7282 31.938 14.2861 31.8092 13.9115 31.5596C13.6364 31.3689 13.3075 31.2709 12.9729 31.28V30.6314C13.4231 30.622 13.8653 30.7508 14.24 31.0005C14.515 31.1913 14.8437 31.2892 15.1783 31.28C15.513 31.2892 15.8419 31.1911 16.1169 31.0001C16.4908 30.7507 16.9323 30.6219 17.3818 30.6314C17.8203 30.6215 18.2516 30.7444 18.6191 30.9839L18.2918 31.5437C18.0234 31.3631 17.7052 31.2709 17.3818 31.28C17.0484 31.271 16.721 31.3688 16.4471 31.5589C16.072 31.8092 15.6291 31.9383 15.1783 31.9287Z" fill="white"/>
<path d="M32.8193 29.6581C32.3688 29.6673 31.9263 29.5385 31.5512 29.289C31.272 29.1065 30.9456 29.0094 30.6121 29.0094C30.2785 29.0094 29.9522 29.1065 29.673 29.289C29.2944 29.53 28.855 29.658 28.4062 29.658C27.9574 29.658 27.518 29.53 27.1394 29.289C26.8606 29.1067 26.5346 29.0095 26.2014 29.0095C25.8683 29.0095 25.5423 29.1067 25.2635 29.289C24.8849 29.5301 24.4455 29.6581 23.9967 29.6581C23.5479 29.6581 23.1084 29.5301 22.7299 29.289C22.451 29.1067 22.1251 29.0095 21.7919 29.0095C21.4588 29.0095 21.1328 29.1067 20.854 29.289C20.4794 29.5386 20.0372 29.6674 19.5872 29.6581C19.1371 29.6674 18.695 29.5386 18.3204 29.289C18.0455 29.0983 17.7169 29.0003 17.3824 29.0094C17.0481 29.0004 16.7196 29.0983 16.4448 29.289C16.0708 29.5383 15.6294 29.6671 15.1799 29.6581C14.7298 29.6674 14.2875 29.5386 13.9128 29.289C13.6374 29.0979 13.308 28.9999 12.9729 29.0094V28.3608C13.423 28.3515 13.8651 28.4803 14.2397 28.7299C14.5148 28.9206 14.8437 29.0185 15.1783 29.0094C15.5126 29.0185 15.8412 28.9206 16.1159 28.7299C16.49 28.4805 16.9314 28.3517 17.3808 28.3608C17.8312 28.3512 18.2737 28.48 18.6486 28.7299C18.9236 28.9207 19.2523 29.0186 19.5868 29.0094C19.9214 29.0186 20.2501 28.9207 20.5251 28.7299C20.9037 28.4888 21.3431 28.3607 21.7919 28.3607C22.2407 28.3607 22.6802 28.4888 23.0587 28.7299C23.3376 28.9122 23.6636 29.0094 23.9968 29.0094C24.3301 29.0094 24.6561 28.9122 24.935 28.7299C25.3135 28.4888 25.753 28.3607 26.2018 28.3607C26.6506 28.3607 27.09 28.4888 27.4686 28.7299C27.7475 28.9122 28.0735 29.0094 28.4067 29.0094C28.7399 29.0094 29.0659 28.9122 29.3448 28.7299C29.7237 28.4889 30.1635 28.3609 30.6126 28.3609C31.0617 28.3609 31.5014 28.4889 31.8804 28.7299C32.1597 28.9122 32.4862 29.0093 32.8198 29.0093C33.1534 29.0093 33.4798 28.9122 33.7592 28.7299C34.1342 28.4804 34.5766 28.3517 35.027 28.3608V29.0094C34.6917 29 34.3621 29.0979 34.0864 29.289C33.7115 29.5383 33.2694 29.6671 32.8193 29.6581Z" fill="white"/>
<path d="M32.8184 27.3882C32.3683 27.3974 31.9261 27.2686 31.5513 27.0191C31.2762 26.8283 30.9473 26.7304 30.6127 26.7395C30.3671 26.7311 30.1232 26.7834 29.9028 26.8919L29.6167 26.3082C29.9263 26.1564 30.268 26.0815 30.6127 26.0899C31.0634 26.0807 31.5061 26.2099 31.8811 26.4599C32.1608 26.6427 32.4876 26.7401 32.8217 26.7401C33.1558 26.7401 33.4826 26.6427 33.7622 26.4599C34.1364 26.211 34.5777 26.0823 35.0271 26.0909V26.7395C34.6925 26.7304 34.3637 26.8282 34.0885 27.0188C33.7128 27.2686 33.2696 27.3975 32.8184 27.3882Z" fill="white"/>
<path d="M28.4043 27.3881C27.9548 27.3975 27.5133 27.2688 27.1394 27.0193C26.8604 26.8369 26.5343 26.7397 26.201 26.7397C25.8676 26.7397 25.5415 26.8369 25.2625 27.0193C24.8839 27.2604 24.4444 27.3884 23.9955 27.3884C23.5467 27.3884 23.1072 27.2604 22.7286 27.0193C22.4496 26.837 22.1236 26.7398 21.7903 26.7398C21.457 26.7398 21.131 26.837 20.852 27.0193C20.4775 27.2685 20.0357 27.3972 19.5859 27.3881C19.1358 27.3974 18.6937 27.2686 18.3191 27.019C18.0439 26.8283 17.7151 26.7303 17.3805 26.7394C17.0471 26.7304 16.7197 26.8282 16.4458 27.0184C16.0711 27.2684 15.6287 27.3974 15.1783 27.3881C14.7282 27.3974 14.2861 27.2686 13.9115 27.019C13.6364 26.8283 13.3075 26.7303 12.9729 26.7394V26.0908C13.4231 26.0814 13.8653 26.2102 14.24 26.4599C14.515 26.6507 14.8437 26.7486 15.1783 26.7394C15.513 26.7486 15.8419 26.6506 16.1169 26.4595C16.4908 26.2101 16.9323 26.0813 17.3818 26.0908C17.8318 26.0815 18.2739 26.2103 18.6486 26.4599C18.9236 26.6507 19.2523 26.7486 19.5868 26.7394C19.9215 26.7485 20.2503 26.6506 20.5254 26.4599C20.9041 26.2188 21.3436 26.0908 21.7924 26.0908C22.2413 26.0908 22.6808 26.2188 23.0594 26.4599C23.3383 26.6422 23.6644 26.7393 23.9977 26.7393C24.3309 26.7393 24.657 26.6422 24.9359 26.4599C25.3146 26.2187 25.7543 26.0905 26.2032 26.0905C26.6522 26.0905 27.0919 26.2187 27.4705 26.4599C27.7563 26.6521 28.0951 26.7497 28.4393 26.7391C28.4643 26.7394 28.4893 26.7381 28.5142 26.7352L28.6005 27.378C28.5354 27.3856 28.4698 27.389 28.4043 27.3881Z" fill="white"/>
<path d="M32.8193 25.1175C32.3688 25.1267 31.9263 24.9979 31.5512 24.7484C31.272 24.566 30.9456 24.4688 30.6121 24.4688C30.2785 24.4688 29.9522 24.566 29.673 24.7484C29.2944 24.9894 28.855 25.1174 28.4062 25.1174C27.9574 25.1174 27.518 24.9894 27.1394 24.7484C26.8606 24.5661 26.5346 24.469 26.2014 24.469C25.8683 24.469 25.5423 24.5661 25.2635 24.7484C24.8849 24.9895 24.4455 25.1175 23.9967 25.1175C23.5479 25.1175 23.1084 24.9895 22.7299 24.7484C22.451 24.5661 22.1251 24.469 21.7919 24.469C21.4588 24.469 21.1328 24.5661 20.854 24.7484C20.4794 24.998 20.0372 25.1268 19.5872 25.1175C19.1371 25.1268 18.695 24.998 18.3204 24.7484C18.0455 24.5577 17.7169 24.4597 17.3824 24.4688C17.0481 24.4598 16.7196 24.5577 16.4448 24.7484C16.0708 24.9977 15.6294 25.1265 15.1799 25.1175C14.7298 25.1268 14.2875 24.998 13.9128 24.7484C13.6374 24.5573 13.308 24.4593 12.9729 24.4688V23.8202C13.423 23.8109 13.8651 23.9397 14.2397 24.1893C14.5148 24.38 14.8437 24.478 15.1783 24.4688C15.5126 24.4779 15.8412 24.38 16.1159 24.1893C16.49 23.94 16.9314 23.8111 17.3808 23.8202C17.8312 23.8106 18.2737 23.9395 18.6486 24.1893C18.9236 24.3801 19.2523 24.478 19.5868 24.4688C19.9214 24.478 20.2501 24.3801 20.5251 24.1893C20.9037 23.9482 21.3431 23.8201 21.7919 23.8201C22.2407 23.8201 22.6802 23.9482 23.0587 24.1893C23.3376 24.3717 23.6636 24.4688 23.9968 24.4688C24.3301 24.4688 24.6561 24.3717 24.935 24.1893C25.3135 23.9482 25.753 23.8201 26.2018 23.8201C26.6506 23.8201 27.09 23.9482 27.4686 24.1893C27.7475 24.3717 28.0735 24.4688 28.4067 24.4688C28.7399 24.4688 29.0659 24.3717 29.3448 24.1893C29.7237 23.9483 30.1635 23.8203 30.6126 23.8203C31.0617 23.8203 31.5014 23.9483 31.8804 24.1893C32.1597 24.3716 32.4862 24.4687 32.8198 24.4687C33.1534 24.4687 33.4798 24.3716 33.7592 24.1893C34.1342 23.9399 34.5766 23.8111 35.027 23.8202V24.4688C34.6917 24.4594 34.3621 24.5573 34.0864 24.7484C33.7115 24.9977 33.2694 25.1265 32.8193 25.1175Z" fill="white"/>
<path d="M28.1977 24.8425L27.5857 24.6278C27.7433 24.1749 27.8077 23.6948 27.775 23.2165C27.7423 22.7381 27.6131 22.2713 27.3953 21.8441L25.1675 17.4816C25.1455 17.4385 25.1335 17.3911 25.1322 17.3427C25.1309 17.2943 25.1404 17.2463 25.1601 17.2021C25.1798 17.1579 25.2091 17.1187 25.2459 17.0873C25.2827 17.0559 25.3261 17.0332 25.3728 17.0207L29.8125 15.8369C29.9572 15.7991 30.0811 15.7057 30.1572 15.577C30.2333 15.4483 30.2556 15.2947 30.2191 15.1497C30.1826 15.0046 30.0903 14.8799 29.9622 14.8026C29.8342 14.7253 29.6809 14.7017 29.5355 14.7368L24.1621 16.0212C24.0473 16.0483 23.9402 16.1015 23.8492 16.1767C23.7582 16.2519 23.6857 16.347 23.6374 16.4547C23.5891 16.5624 23.5662 16.6797 23.5705 16.7977C23.5748 16.9157 23.6063 17.031 23.6623 17.1349L25.258 20.0992C25.2985 20.1746 25.3076 20.2628 25.2833 20.3448C25.259 20.4268 25.2033 20.4959 25.1283 20.5371L23.0688 21.6722L22.7559 21.104L24.5338 20.1239L23.0919 17.4424C22.9887 17.2509 22.931 17.0383 22.9231 16.821C22.9152 16.6037 22.9574 16.3875 23.0465 16.1891C23.1355 15.9907 23.269 15.8155 23.4366 15.6769C23.6041 15.5384 23.8014 15.4402 24.0129 15.39L29.3838 14.106C29.6964 14.027 30.0277 14.0755 30.3046 14.2407C30.5816 14.4059 30.7816 14.6744 30.8606 14.9871C30.9396 15.2997 30.8911 15.631 30.7259 15.9079C30.5607 16.1849 30.2922 16.3849 29.9795 16.4639L25.9274 17.5439L27.9733 21.5486C28.2309 22.0541 28.3836 22.6065 28.4221 23.1726C28.4607 23.7387 28.3844 24.3067 28.1977 24.8425Z" fill="white"/>
<path d="M21.6222 21.7339L17.6809 23.9056L17.9938 24.4735L21.9351 22.3017L21.6222 21.7339Z" fill="white"/>
<path d="M31.1351 22.6851C30.654 22.6851 30.1837 22.5424 29.7837 22.2751C29.3837 22.0079 29.0719 21.628 28.8878 21.1835C28.7037 20.739 28.6555 20.25 28.7494 19.7781C28.8432 19.3063 29.0749 18.8728 29.4151 18.5327C29.7553 18.1925 30.1887 17.9608 30.6605 17.867C31.1324 17.7731 31.6214 17.8213 32.0659 18.0054C32.5104 18.1895 32.8903 18.5013 33.1576 18.9013C33.4248 19.3013 33.5675 19.7716 33.5675 20.2527C33.5668 20.8976 33.3103 21.5159 32.8543 21.9719C32.3983 22.4279 31.78 22.6844 31.1351 22.6851ZM31.1351 18.4689C30.7823 18.4689 30.4374 18.5735 30.1441 18.7695C29.8507 18.9655 29.6221 19.2441 29.4871 19.57C29.3521 19.896 29.3167 20.2546 29.3856 20.6007C29.4544 20.9467 29.6243 21.2645 29.8737 21.514C30.1232 21.7634 30.441 21.9333 30.7871 22.0022C31.1331 22.071 31.4917 22.0357 31.8177 21.9007C32.1436 21.7656 32.4222 21.537 32.6182 21.2437C32.8142 20.9503 32.9188 20.6055 32.9188 20.2527C32.9182 19.7797 32.7301 19.3264 32.3957 18.992C32.0613 18.6576 31.608 18.4695 31.1351 18.4689Z" fill="white"/>
</svg>
