<svg width="56" height="56" viewBox="0 0 56 56" fill="none" xmlns="http://www.w3.org/2000/svg">
<g clip-path="url(#clip0_0_476)">
<path d="M53.4312 50.897H2.54497C1.13904 50.897 0 52.036 0 53.4431C0 54.8479 1.13904 55.9869 2.54497 55.9869H53.43C54.8359 55.9869 55.975 54.8479 55.975 53.4431C55.9738 52.036 54.8348 50.897 53.4312 50.897Z" fill="#EA611B"/>
<path d="M5.72496 44.2808C4.31903 44.2808 3.17999 45.4198 3.17999 46.8257C3.17999 48.2317 4.31903 49.3719 5.72496 49.3719H50.25C51.6559 49.3719 52.7949 48.2317 52.7949 46.8257C52.7949 45.4198 51.6559 44.2808 50.25 44.2808H49.6149V21.3808H50.25C50.9541 21.3808 51.5213 20.8113 51.5213 20.1095C51.5213 19.4078 50.9517 18.8382 50.25 18.8382H5.72496C5.022 18.8382 4.45367 19.4078 4.45367 20.1095C4.45367 20.8113 5.02319 21.3808 5.72496 21.3808H6.3612V44.2796L5.72496 44.2808ZM44.525 21.3808V44.2796H36.8925V21.3808H44.525ZM31.8025 21.3808V44.2796H24.17V21.3808H31.8025ZM11.4488 21.3808H19.0813V44.2796H11.4488V21.3808Z" fill="#EA611B"/>
<path d="M2.54495 16.5506H53.43C53.4383 16.5506 53.4479 16.5506 53.455 16.5506C54.8621 16.5506 56 15.4116 56 14.0057C56 12.8881 55.2803 11.9409 54.2807 11.5977L29.0336 0.237102C28.3699 -0.0607641 27.611 -0.0607641 26.9461 0.237102L1.50123 11.6859C0.406276 12.1791 -0.195413 13.3682 0.0571776 14.5406C0.308576 15.713 1.34515 16.5506 2.54495 16.5506Z" fill="#EA611B"/>
</g>
<defs>
<clipPath id="clip0_0_476">
<rect width="56" height="56" fill="white"/>
</clipPath>
</defs>
</svg>
