<svg width="70" height="70" viewBox="0 0 70 70" fill="none" xmlns="http://www.w3.org/2000/svg">
<path d="M67.8125 43.7495C66.605 43.7495 65.625 44.7295 65.625 45.937V61.2495H4.375V34.9995H28.4375C29.645 34.9995 30.625 34.0195 30.625 32.812C30.625 31.6045 29.645 30.6245 28.4375 30.6245H4.375V21.8745H28.4375C29.645 21.8745 30.625 20.8945 30.625 19.687C30.625 18.4795 29.645 17.4995 28.4375 17.4995H4.375C1.96 17.4995 0 19.4595 0 21.8745V61.2495C0 63.6645 1.96 65.6245 4.375 65.6245H65.625C68.04 65.6245 70 63.6645 70 61.2495V45.937C70 44.7295 69.02 43.7495 67.8125 43.7495Z" fill="#EA611B"/>
<path d="M19.6875 43.7495H10.9375C9.73 43.7495 8.75 44.7295 8.75 45.937C8.75 47.1445 9.73 48.1245 10.9375 48.1245H19.6875C20.895 48.1245 21.875 47.1445 21.875 45.937C21.875 44.7295 20.895 43.7495 19.6875 43.7495Z" fill="#EA611B"/>
<path d="M68.6744 11.112L53.3619 4.54946C52.8062 4.31758 52.1894 4.31758 51.6338 4.54946L36.3213 11.112C35.5206 11.4576 35 12.2495 35 13.1245V21.8745C35 33.9101 39.4494 40.9451 51.4106 47.8357C51.7475 48.0282 52.1238 48.1245 52.5 48.1245C52.8762 48.1245 53.2525 48.0282 53.5894 47.8357C65.5506 40.9626 70 33.9276 70 21.8745V13.1245C70 12.2495 69.4794 11.4576 68.6744 11.112ZM65.625 21.8745C65.625 31.9763 62.2825 37.537 52.5 43.3995C42.7175 37.5238 39.375 31.9632 39.375 21.8745V14.5682L52.5 8.94196L65.625 14.5682V21.8745Z" fill="#EA611B"/>
<path d="M60.4319 17.9763C59.4913 17.2326 58.1175 17.377 57.3563 18.3176L50.4788 26.9188L47.7575 22.8501C47.0794 21.8438 45.7188 21.577 44.7256 22.242C43.7238 22.9113 43.4481 24.272 44.1175 25.2738L48.4925 31.8363C48.8819 32.4182 49.5206 32.777 50.2206 32.812C50.2513 32.812 50.2863 32.812 50.3125 32.812C50.9731 32.812 51.6031 32.5145 52.0231 31.9895L60.7731 21.052C61.5256 20.107 61.3769 18.7332 60.4319 17.9763Z" fill="#EA611B"/>
</svg>
