<svg width="570" height="644" viewBox="0 0 570 644" fill="none" xmlns="http://www.w3.org/2000/svg">
<g clip-path="url(#clip0_0_209)">
<path opacity="0.5" d="M430.912 85.8453V339.795L489.416 373.566V119.616L430.912 85.8453Z" fill="url(#paint0_linear_0_209)"/>
<path opacity="0.5" d="M430.912 85.8453V339.795L372.408 373.566V119.616L430.912 85.8453Z" fill="url(#paint1_linear_0_209)"/>
<path opacity="0.5" d="M430.912 153.387L372.408 119.616L430.912 85.8453L489.416 119.616L430.912 153.387Z" fill="url(#paint2_linear_0_209)"/>
<path opacity="0.5" d="M430.912 151.808L373.773 118.84L372.408 119.616L430.912 153.387L489.416 119.616L488.051 118.84L430.912 151.808Z" fill="url(#paint3_linear_0_209)"/>
<path opacity="0.6" d="M430.912 407.337L372.408 373.566L430.912 339.795L489.416 373.566L430.912 407.337Z" fill="#FAD86A"/>
<path opacity="0.5" d="M372.408 119.616V373.566L430.912 407.337V153.387L372.408 119.616Z" fill="url(#paint4_linear_0_209)"/>
<path opacity="0.5" d="M489.416 119.616V373.566L430.912 407.337V153.387L489.416 119.616Z" fill="url(#paint5_linear_0_209)"/>
<path opacity="0.5" d="M313.824 229.706V407.069L372.328 440.84V263.476L313.824 229.706Z" fill="url(#paint6_linear_0_209)"/>
<path opacity="0.5" d="M313.824 229.706V407.069L255.32 440.84V263.476L313.824 229.706Z" fill="url(#paint7_linear_0_209)"/>
<path opacity="0.5" d="M313.824 297.274L255.32 263.476L313.824 229.706L372.328 263.476L313.824 297.274Z" fill="url(#paint8_linear_0_209)"/>
<path opacity="0.5" d="M313.824 295.668L256.685 262.7L255.32 263.476L313.824 297.274L372.328 263.476L370.963 262.7L313.824 295.668Z" fill="url(#paint9_linear_0_209)"/>
<path opacity="0.6" d="M313.824 474.611L255.32 440.84L313.824 407.069L372.328 440.84L313.824 474.611Z" fill="#FAD86A"/>
<path opacity="0.5" d="M255.32 263.476V440.84L313.824 474.611V297.274L255.32 263.476Z" fill="url(#paint10_linear_0_209)"/>
<path opacity="0.5" d="M372.328 263.476V440.84L313.824 474.611V297.274L372.328 263.476Z" fill="url(#paint11_linear_0_209)"/>
<path opacity="0.5" d="M196.735 372.629V474.37L255.239 508.141V406.4L196.735 372.629Z" fill="url(#paint12_linear_0_209)"/>
<path opacity="0.5" d="M196.735 372.629V474.37L138.231 508.141V406.4L196.735 372.629Z" fill="url(#paint13_linear_0_209)"/>
<path opacity="0.5" d="M196.735 440.171L138.231 406.4L196.735 372.629L255.239 406.4L196.735 440.171Z" fill="url(#paint14_linear_0_209)"/>
<path opacity="0.5" d="M196.735 438.592L139.596 405.597L138.231 406.4L196.735 440.171L255.239 406.4L253.875 405.597L196.735 438.592Z" fill="url(#paint15_linear_0_209)"/>
<path opacity="0.6" d="M196.735 541.912L138.231 508.141L196.735 474.37L255.239 508.141L196.735 541.912Z" fill="#FAD86A"/>
<path opacity="0.5" d="M138.231 406.4V508.141L196.735 541.912V440.171L138.231 406.4Z" fill="url(#paint16_linear_0_209)"/>
<path opacity="0.5" d="M255.239 406.4V508.141L196.735 541.912V440.171L255.239 406.4Z" fill="url(#paint17_linear_0_209)"/>
<path opacity="0.5" d="M489.791 381.647V576.432L548.295 610.229V415.418L489.791 381.647Z" fill="url(#paint18_linear_0_209)"/>
<path opacity="0.5" d="M489.791 381.647V576.432L431.287 610.229V415.418L489.791 381.647Z" fill="url(#paint19_linear_0_209)"/>
<path opacity="0.5" d="M489.791 449.189L431.287 415.418L489.791 381.647L548.295 415.418L489.791 449.189Z" fill="url(#paint20_linear_0_209)"/>
<path opacity="0.5" d="M489.791 447.61L432.679 414.642L431.287 415.418L489.791 449.189L548.295 415.418L546.93 414.642L489.791 447.61Z" fill="url(#paint21_linear_0_209)"/>
<path opacity="0.6" d="M489.791 644L431.287 610.229L489.791 576.432L548.295 610.229L489.791 644Z" fill="#FAD86A"/>
<path opacity="0.5" d="M431.287 415.418V610.229L489.791 644V449.189L431.287 415.418Z" fill="url(#paint22_linear_0_209)"/>
<path opacity="0.5" d="M548.295 415.418V610.229L489.791 644V449.189L548.295 415.418Z" fill="url(#paint23_linear_0_209)"/>
<path opacity="0.5" d="M372.328 461.846V507.338L430.832 541.109V495.617L372.328 461.846Z" fill="url(#paint24_linear_0_209)"/>
<path opacity="0.5" d="M372.328 461.846V507.338L313.824 541.109V495.617L372.328 461.846Z" fill="url(#paint25_linear_0_209)"/>
<path opacity="0.5" d="M372.328 529.388L313.824 495.617L372.328 461.846L430.832 495.617L372.328 529.388Z" fill="url(#paint26_linear_0_209)"/>
<path opacity="0.5" d="M372.328 527.809L315.189 494.841L313.824 495.617L372.328 529.388L430.832 495.617L429.467 494.841L372.328 527.809Z" fill="url(#paint27_linear_0_209)"/>
<path opacity="0.6" d="M372.328 574.88L313.824 541.109L372.328 507.338L430.832 541.109L372.328 574.88Z" fill="#FAD86A"/>
<path opacity="0.5" d="M313.824 495.617V541.109L372.328 574.88V529.388L313.824 495.617Z" fill="url(#paint28_linear_0_209)"/>
<path opacity="0.5" d="M430.832 495.617V541.109L372.328 574.88V529.388L430.832 495.617Z" fill="url(#paint29_linear_0_209)"/>
<g opacity="0.8">
<path d="M6.28929 574.666C6.66398 576.378 5.59345 578.091 3.88062 578.465C2.16778 578.84 0.454943 577.77 0.0802601 576.057C-0.294423 574.344 0.7761 572.632 2.48894 572.257C4.20177 571.883 5.88785 572.953 6.28929 574.666Z" fill="#FAD86A"/>
<path d="M19.1355 567.253C19.5102 568.966 18.4397 570.678 16.7269 571.053C15.014 571.428 13.3012 570.357 12.9265 568.645C12.5518 566.932 13.6224 565.219 15.3352 564.845C17.048 564.443 18.7341 565.54 19.1355 567.253Z" fill="#FAD86A"/>
<path d="M31.9819 559.841C32.3565 561.553 31.286 563.266 29.5732 563.641C27.8603 564.015 26.1475 562.945 25.7728 561.232C25.3981 559.52 26.4687 557.807 28.1815 557.432C29.8676 557.031 31.5804 558.128 31.9819 559.841Z" fill="#FAD86A"/>
<path d="M44.8014 552.428C45.1761 554.141 44.1055 555.853 42.3927 556.228C40.6799 556.603 38.967 555.532 38.5923 553.82C38.2177 552.107 39.2882 550.394 41.001 550.02C42.7139 549.618 44.4267 550.689 44.8014 552.428Z" fill="#FAD86A"/>
<path d="M57.6476 544.989C58.0223 546.702 56.9518 548.414 55.239 548.789C53.5261 549.164 51.8133 548.093 51.4386 546.38C51.0639 544.668 52.1344 542.955 53.8473 542.581C55.5601 542.206 57.273 543.276 57.6476 544.989Z" fill="#FAD86A"/>
<path d="M70.4939 537.577C70.8686 539.289 69.7981 541.002 68.0853 541.376C66.3724 541.751 64.6596 540.681 64.2849 538.968C63.9102 537.255 64.9808 535.543 66.6936 535.168C68.4064 534.794 70.1193 535.864 70.4939 537.577Z" fill="#FAD86A"/>
<path d="M83.3402 530.164C83.7149 531.877 82.6444 533.589 80.9315 533.964C79.2187 534.339 77.5058 533.268 77.1312 531.556C76.7565 529.843 77.827 528.13 79.5398 527.756C81.2527 527.381 82.9655 528.451 83.3402 530.164Z" fill="#FAD86A"/>
<path d="M19.0018 582.078C19.3764 583.791 18.3059 585.503 16.5931 585.878C14.8802 586.253 13.1674 585.182 12.7927 583.47C12.418 581.757 13.4886 580.044 15.2014 579.67C16.9142 579.295 18.6003 580.365 19.0018 582.078Z" fill="#FAD86A"/>
<path d="M31.848 574.666C32.2227 576.378 31.1522 578.091 29.4393 578.465C27.7265 578.84 26.0137 577.77 25.639 576.057C25.2643 574.344 26.3348 572.632 28.0477 572.257C29.7337 571.856 31.4466 572.953 31.848 574.666Z" fill="#FAD86A"/>
<path d="M44.6675 567.253C45.0422 568.966 43.9717 570.678 42.2589 571.053C40.546 571.428 38.8332 570.357 38.4585 568.645C38.0838 566.932 39.1543 565.219 40.8672 564.845C42.58 564.443 44.2928 565.54 44.6675 567.253Z" fill="#FAD86A"/>
<path d="M57.5138 559.841C57.8885 561.553 56.818 563.266 55.1052 563.641C53.3923 564.015 51.6795 562.945 51.3048 561.232C50.9301 559.52 52.0006 557.807 53.7135 557.432C55.4263 557.031 57.1392 558.101 57.5138 559.841Z" fill="#FAD86A"/>
<path d="M70.3601 552.401C70.7348 554.114 69.6643 555.827 67.9514 556.201C66.2386 556.576 64.5257 555.506 64.1511 553.793C63.7764 552.08 64.8469 550.368 66.5597 549.993C68.2726 549.618 69.9854 550.689 70.3601 552.401Z" fill="#FAD86A"/>
<path d="M83.2063 544.989C83.581 546.702 82.5105 548.414 80.7977 548.789C79.0848 549.164 77.372 548.093 76.9973 546.38C76.6226 544.668 77.6932 542.955 79.406 542.581C81.1188 542.206 82.8317 543.276 83.2063 544.989Z" fill="#FAD86A"/>
<path d="M96.0527 537.577C96.4273 539.289 95.3568 541.002 93.644 541.376C91.9312 541.751 90.2183 540.681 89.8436 538.968C89.4689 537.255 90.5395 535.543 92.2523 535.168C93.9651 534.794 95.6512 535.864 96.0527 537.577Z" fill="#FAD86A"/>
<path d="M31.7142 589.49C32.0889 591.203 31.0184 592.916 29.3055 593.29C27.5927 593.665 25.8799 592.595 25.5052 590.882C25.1305 589.169 26.201 587.457 27.9139 587.082C29.6267 586.707 31.3128 587.778 31.7142 589.49Z" fill="#FAD86A"/>
<path d="M44.5337 582.078C44.9084 583.791 43.8379 585.503 42.1251 585.878C40.4122 586.253 38.6994 585.182 38.3247 583.47C37.95 581.757 39.0205 580.044 40.7334 579.67C42.4462 579.268 44.1591 580.365 44.5337 582.078Z" fill="#FAD86A"/>
<path d="M57.38 574.666C57.7547 576.378 56.6842 578.091 54.9713 578.465C53.2585 578.84 51.5456 577.77 51.171 576.057C50.7963 574.344 51.8668 572.632 53.5796 572.257C55.2925 571.856 57.0053 572.953 57.38 574.666Z" fill="#FAD86A"/>
<path d="M70.2263 567.253C70.601 568.966 69.5305 570.678 67.8176 571.053C66.1048 571.428 64.392 570.357 64.0173 568.645C63.6426 566.932 64.7131 565.219 66.4259 564.845C68.1388 564.443 69.8516 565.514 70.2263 567.253Z" fill="#FAD86A"/>
<path d="M83.0726 559.814C83.4472 561.526 82.3767 563.239 80.6639 563.614C78.951 563.988 77.2382 562.918 76.8635 561.205C76.4888 559.493 77.5594 557.78 79.2722 557.406C80.985 557.031 82.6979 558.101 83.0726 559.814Z" fill="#FAD86A"/>
<path d="M95.9189 552.401C96.2936 554.114 95.223 555.827 93.5102 556.201C91.7974 556.576 90.0845 555.506 89.7098 553.793C89.3352 552.08 90.4057 550.368 92.1185 549.993C93.8313 549.618 95.5174 550.689 95.9189 552.401Z" fill="#FAD86A"/>
<path d="M108.765 544.989C109.14 546.702 108.069 548.414 106.356 548.789C104.644 549.164 102.931 548.093 102.556 546.38C102.181 544.668 103.252 542.955 104.965 542.581C106.678 542.206 108.364 543.276 108.765 544.989Z" fill="#FAD86A"/>
<path d="M44.4267 596.903C44.8014 598.616 43.7308 600.328 42.018 600.703C40.3052 601.077 38.5923 600.007 38.2177 598.294C37.843 596.582 38.9135 594.869 40.6263 594.495C42.3124 594.12 44.0252 595.19 44.4267 596.903Z" fill="#FAD86A"/>
<path d="M57.2462 589.49C57.6209 591.203 56.5504 592.916 54.8375 593.29C53.1247 593.665 51.4119 592.595 51.0372 590.882C50.6625 589.169 51.733 587.457 53.4458 587.082C55.1587 586.681 56.8715 587.778 57.2462 589.49Z" fill="#FAD86A"/>
<path d="M70.0925 582.078C70.4671 583.791 69.3966 585.503 67.6838 585.878C65.9709 586.253 64.2581 585.182 63.8834 583.47C63.5087 581.757 64.5793 580.044 66.2921 579.67C68.0049 579.268 69.7178 580.365 70.0925 582.078Z" fill="#FAD86A"/>
<path d="M82.9388 574.666C83.3135 576.378 82.2429 578.091 80.5301 578.465C78.8173 578.84 77.1044 577.77 76.7297 576.057C76.3551 574.344 77.4256 572.632 79.1384 572.257C80.8512 571.856 82.5641 572.926 82.9388 574.666Z" fill="#FAD86A"/>
<path d="M95.785 567.226C96.1597 568.939 95.0892 570.652 93.3763 571.026C91.6635 571.401 89.9507 570.33 89.576 568.618C89.2013 566.905 90.2718 565.193 91.9847 564.818C93.6975 564.443 95.3836 565.514 95.785 567.226Z" fill="#FAD86A"/>
<path d="M108.631 559.814C109.006 561.527 107.935 563.239 106.223 563.614C104.51 563.988 102.797 562.918 102.422 561.205C102.048 559.493 103.118 557.78 104.831 557.406C106.544 557.031 108.23 558.101 108.631 559.814Z" fill="#FAD86A"/>
<path d="M121.478 552.401C121.852 554.114 120.782 555.827 119.069 556.201C117.356 556.576 115.643 555.506 115.269 553.793C114.894 552.08 115.964 550.368 117.677 549.993C119.39 549.618 121.076 550.689 121.478 552.401Z" fill="#FAD86A"/>
<path d="M57.1124 604.315C57.487 606.028 56.4165 607.741 54.7037 608.115C52.9908 608.49 51.278 607.419 50.9033 605.707C50.5286 603.994 51.5992 602.282 53.312 601.907C55.0248 601.532 56.7377 602.603 57.1124 604.315Z" fill="#FAD86A"/>
<path d="M69.9586 596.903C70.3333 598.616 69.2628 600.328 67.5499 600.703C65.8371 601.077 64.1243 600.007 63.7496 598.294C63.3749 596.582 64.4454 594.869 66.1582 594.495C67.8711 594.093 69.5839 595.19 69.9586 596.903Z" fill="#FAD86A"/>
<path d="M82.8049 589.49C83.1796 591.203 82.1091 592.916 80.3962 593.29C78.6834 593.665 76.9706 592.595 76.5959 590.882C76.2212 589.169 77.2917 587.457 79.0046 587.082C80.7174 586.681 82.4302 587.778 82.8049 589.49Z" fill="#FAD86A"/>
<path d="M95.6512 582.078C96.0259 583.791 94.9553 585.503 93.2425 585.878C91.5297 586.253 89.8168 585.182 89.4421 583.469C89.0675 581.757 90.138 580.044 91.8508 579.67C93.5637 579.268 95.2497 580.365 95.6512 582.078Z" fill="#FAD86A"/>
<path d="M108.497 574.639C108.872 576.351 107.802 578.064 106.089 578.439C104.376 578.813 102.663 577.743 102.288 576.03C101.914 574.318 102.984 572.605 104.697 572.23C106.41 571.856 108.096 572.926 108.497 574.639Z" fill="#FAD86A"/>
<path d="M121.344 567.226C121.718 568.939 120.648 570.652 118.935 571.026C117.222 571.401 115.509 570.33 115.135 568.618C114.76 566.905 115.831 565.193 117.543 564.818C119.256 564.443 120.942 565.514 121.344 567.226Z" fill="#FAD86A"/>
<path d="M134.19 559.814C134.565 561.526 133.494 563.239 131.781 563.614C130.068 563.988 128.356 562.918 127.981 561.205C127.606 559.493 128.677 557.78 130.39 557.406C132.076 557.031 133.789 558.101 134.19 559.814Z" fill="#FAD86A"/>
<path d="M69.8248 611.728C70.1995 613.44 69.129 615.153 67.4161 615.528C65.7033 615.902 63.9905 614.832 63.6158 613.119C63.2411 611.407 64.3116 609.694 66.0245 609.319C67.7373 608.945 69.4501 610.015 69.8248 611.728Z" fill="#FAD86A"/>
<path d="M82.6711 604.315C83.0458 606.028 81.9752 607.741 80.2624 608.115C78.5496 608.49 76.8367 607.419 76.462 605.707C76.0874 603.994 77.1579 602.282 78.8707 601.907C80.5835 601.506 82.2964 602.603 82.6711 604.315Z" fill="#FAD86A"/>
<path d="M95.5174 596.903C95.8921 598.616 94.8215 600.328 93.1087 600.703C91.3959 601.077 89.683 600.007 89.3083 598.294C88.9337 596.582 90.0042 594.869 91.717 594.495C93.4299 594.12 95.1159 595.19 95.5174 596.903Z" fill="#FAD86A"/>
<path d="M108.364 589.49C108.738 591.203 107.668 592.916 105.955 593.29C104.242 593.665 102.529 592.595 102.155 590.882C101.78 589.169 102.85 587.457 104.563 587.082C106.276 586.681 107.962 587.778 108.364 589.49Z" fill="#FAD86A"/>
<path d="M121.21 582.051C121.585 583.764 120.514 585.476 118.801 585.851C117.088 586.226 115.376 585.155 115.001 583.443C114.626 581.73 115.697 580.017 117.41 579.643C119.122 579.268 120.809 580.339 121.21 582.051Z" fill="#FAD86A"/>
<path d="M134.056 574.639C134.431 576.351 133.36 578.064 131.648 578.439C129.935 578.813 128.222 577.743 127.847 576.03C127.472 574.318 128.543 572.605 130.256 572.23C131.942 571.856 133.655 572.926 134.056 574.639Z" fill="#FAD86A"/>
<path d="M146.635 569.314C145.859 570.892 143.959 571.561 142.38 570.785C140.801 570.009 140.131 568.109 140.908 566.531C141.684 564.952 143.584 564.283 145.163 565.059C146.742 565.835 147.411 567.735 146.635 569.314Z" fill="#EB9A3E"/>
<path d="M82.5373 619.14C82.912 620.853 81.8414 622.565 80.1286 622.94C78.4158 623.315 76.7029 622.244 76.3282 620.532C75.9536 618.819 77.0241 617.106 78.7369 616.732C80.4498 616.357 82.1626 617.428 82.5373 619.14Z" fill="#FAD86A"/>
<path d="M95.3835 611.728C95.7582 613.44 94.6877 615.153 92.9749 615.528C91.262 615.902 89.5492 614.832 89.1745 613.119C88.7998 611.407 89.8703 609.694 91.5832 609.319C93.296 608.918 95.0088 610.015 95.3835 611.728Z" fill="#FAD86A"/>
<path d="M108.23 604.315C108.605 606.028 107.534 607.741 105.821 608.115C104.108 608.49 102.395 607.419 102.021 605.707C101.646 603.994 102.717 602.282 104.429 601.907C106.142 601.506 107.828 602.603 108.23 604.315Z" fill="#FAD86A"/>
<path d="M121.076 596.903C121.451 598.616 120.38 600.328 118.667 600.703C116.955 601.077 115.242 600.007 114.867 598.294C114.492 596.582 115.563 594.869 117.276 594.495C118.989 594.093 120.675 595.19 121.076 596.903Z" fill="#FAD86A"/>
<path d="M133.922 589.49C134.297 591.203 133.227 592.916 131.514 593.29C129.801 593.665 128.088 592.595 127.713 590.882C127.339 589.169 128.409 587.457 130.122 587.082C131.808 586.681 133.521 587.751 133.922 589.49Z" fill="#FAD86A"/>
<path d="M146.742 582.051C147.117 583.764 146.046 585.476 144.333 585.851C142.62 586.226 140.908 585.155 140.533 583.443C140.158 581.73 141.229 580.018 142.942 579.643C144.654 579.268 146.367 580.339 146.742 582.051Z" fill="#FAD86A"/>
<path d="M159.588 574.639C159.963 576.351 158.892 578.064 157.18 578.439C155.467 578.813 153.754 577.743 153.379 576.03C153.004 574.318 154.075 572.605 155.788 572.23C157.501 571.856 159.213 572.926 159.588 574.639Z" fill="#FAD86A"/>
</g>
<path opacity="0.5" d="M79.6469 449.457V541.805L138.151 575.575V483.227L79.6469 449.457Z" fill="url(#paint30_linear_0_209)"/>
<path opacity="0.5" d="M79.6469 449.457V541.805L21.116 575.575V483.227L79.6469 449.457Z" fill="url(#paint31_linear_0_209)"/>
<path opacity="0.5" d="M79.6469 516.998L21.116 483.227L79.6469 449.457L138.151 483.227L79.6469 516.998Z" fill="url(#paint32_linear_0_209)"/>
<path opacity="0.5" d="M79.6469 515.419L22.5077 482.425L21.116 483.227L79.6469 516.998L138.151 483.227L136.759 482.425L79.6469 515.419Z" fill="url(#paint33_linear_0_209)"/>
<path opacity="0.6" d="M79.6469 609.346L21.116 575.575L79.6469 541.805L138.151 575.575L79.6469 609.346Z" fill="#FAD86A"/>
<path opacity="0.5" d="M21.116 483.227V575.575L79.6469 609.346V516.998L21.116 483.227Z" fill="url(#paint34_linear_0_209)"/>
<path opacity="0.5" d="M138.151 483.227V575.575L79.6469 609.346V516.998L138.151 483.227Z" fill="url(#paint35_linear_0_209)"/>
<g opacity="0.8">
<path d="M416.621 413.706C416.995 415.418 415.925 417.131 414.212 417.506C412.499 417.88 410.786 416.81 410.412 415.097C410.037 413.385 411.108 411.672 412.82 411.297C414.533 410.896 416.246 411.993 416.621 413.706Z" fill="#FAD86A"/>
<path d="M429.467 406.293C429.842 408.006 428.771 409.718 427.058 410.093C425.346 410.468 423.633 409.397 423.258 407.685C422.883 405.972 423.954 404.259 425.667 403.885C427.38 403.483 429.066 404.581 429.467 406.293Z" fill="#FAD86A"/>
<path d="M442.313 398.854C442.688 400.567 441.617 402.279 439.905 402.654C438.192 403.029 436.479 401.958 436.104 400.246C435.73 398.533 436.8 396.82 438.513 396.446C440.226 396.071 441.912 397.141 442.313 398.854Z" fill="#FAD86A"/>
<path d="M455.16 391.442C455.534 393.154 454.464 394.867 452.751 395.241C451.038 395.616 449.325 394.546 448.951 392.833C448.576 391.121 449.646 389.408 451.359 389.033C453.045 388.659 454.758 389.729 455.16 391.442Z" fill="#FAD86A"/>
<path d="M467.979 384.029C468.354 385.742 467.283 387.454 465.57 387.829C463.858 388.204 462.145 387.133 461.77 385.421C461.395 383.708 462.466 381.995 464.179 381.621C465.892 381.246 467.604 382.317 467.979 384.029Z" fill="#FAD86A"/>
<path d="M480.825 376.617C481.2 378.329 480.13 380.042 478.417 380.417C476.704 380.791 474.991 379.721 474.616 378.008C474.242 376.296 475.312 374.583 477.025 374.208C478.738 373.834 480.451 374.904 480.825 376.617Z" fill="#FAD86A"/>
<path d="M493.672 369.204C494.046 370.917 492.976 372.629 491.263 373.004C489.55 373.379 487.837 372.308 487.463 370.596C487.088 368.883 488.158 367.171 489.871 366.796C491.584 366.421 493.297 367.492 493.672 369.204Z" fill="#FAD86A"/>
<path d="M429.333 421.118C429.708 422.831 428.637 424.543 426.925 424.918C425.212 425.293 423.499 424.222 423.124 422.51C422.75 420.797 423.82 419.084 425.533 418.71C427.246 418.308 428.932 419.406 429.333 421.118Z" fill="#FAD86A"/>
<path d="M442.18 413.706C442.554 415.418 441.484 417.131 439.771 417.506C438.058 417.88 436.345 416.81 435.97 415.097C435.596 413.385 436.666 411.672 438.379 411.297C440.092 410.896 441.778 411.993 442.18 413.706Z" fill="#FAD86A"/>
<path d="M455.026 406.266C455.401 407.979 454.33 409.692 452.617 410.066C450.904 410.441 449.191 409.371 448.817 407.658C448.442 405.945 449.513 404.233 451.225 403.858C452.912 403.483 454.624 404.554 455.026 406.266Z" fill="#FAD86A"/>
<path d="M467.845 398.854C468.22 400.567 467.149 402.279 465.437 402.654C463.724 403.029 462.011 401.958 461.636 400.246C461.262 398.533 462.332 396.82 464.045 396.446C465.758 396.071 467.471 397.141 467.845 398.854Z" fill="#FAD86A"/>
<path d="M480.692 391.442C481.066 393.154 479.996 394.867 478.283 395.241C476.57 395.616 474.857 394.546 474.483 392.833C474.108 391.12 475.178 389.408 476.891 389.033C478.604 388.659 480.317 389.729 480.692 391.442Z" fill="#FAD86A"/>
<path d="M493.538 384.029C493.913 385.742 492.842 387.454 491.129 387.829C489.416 388.204 487.704 387.133 487.329 385.421C486.954 383.708 488.025 381.995 489.738 381.621C491.45 381.246 493.163 382.317 493.538 384.029Z" fill="#FAD86A"/>
<path d="M506.384 376.617C506.759 378.329 505.688 380.042 503.975 380.417C502.263 380.791 500.55 379.721 500.175 378.008C499.8 376.296 500.871 374.583 502.584 374.208C504.297 373.834 506.009 374.904 506.384 376.617Z" fill="#FAD86A"/>
<path d="M442.046 428.531C442.42 430.243 441.35 431.956 439.637 432.331C437.924 432.705 436.211 431.635 435.837 429.922C435.462 428.21 436.533 426.497 438.245 426.122C439.958 425.721 441.644 426.818 442.046 428.531Z" fill="#FAD86A"/>
<path d="M454.892 421.118C455.267 422.831 454.196 424.543 452.483 424.918C450.77 425.293 449.058 424.222 448.683 422.51C448.308 420.797 449.379 419.084 451.092 418.71C452.778 418.308 454.491 419.406 454.892 421.118Z" fill="#FAD86A"/>
<path d="M467.711 413.706C468.086 415.418 467.016 417.131 465.303 417.506C463.59 417.88 461.877 416.81 461.502 415.097C461.128 413.385 462.198 411.672 463.911 411.297C465.624 410.896 467.337 411.966 467.711 413.706Z" fill="#FAD86A"/>
<path d="M480.558 406.267C480.932 407.979 479.862 409.692 478.149 410.066C476.436 410.441 474.723 409.371 474.349 407.658C473.974 405.945 475.045 404.233 476.757 403.858C478.47 403.484 480.183 404.554 480.558 406.267Z" fill="#FAD86A"/>
<path d="M493.404 398.854C493.779 400.567 492.708 402.279 490.995 402.654C489.283 403.029 487.57 401.958 487.195 400.246C486.82 398.533 487.891 396.82 489.604 396.446C491.317 396.071 493.029 397.141 493.404 398.854Z" fill="#FAD86A"/>
<path d="M506.25 391.442C506.625 393.154 505.554 394.867 503.842 395.241C502.129 395.616 500.416 394.546 500.041 392.833C499.667 391.121 500.737 389.408 502.45 389.033C504.163 388.659 505.876 389.729 506.25 391.442Z" fill="#FAD86A"/>
<path d="M519.097 384.029C519.471 385.742 518.401 387.454 516.688 387.829C514.975 388.204 513.262 387.133 512.888 385.421C512.513 383.708 513.583 381.995 515.296 381.621C517.009 381.246 518.695 382.317 519.097 384.029Z" fill="#FAD86A"/>
<path d="M454.758 435.943C455.133 437.656 454.062 439.368 452.35 439.743C450.637 440.118 448.924 439.047 448.549 437.335C448.174 435.622 449.245 433.909 450.958 433.535C452.671 433.133 454.357 434.23 454.758 435.943Z" fill="#FAD86A"/>
<path d="M467.578 428.531C467.952 430.243 466.882 431.956 465.169 432.331C463.456 432.705 461.743 431.635 461.369 429.922C460.994 428.21 462.064 426.497 463.777 426.122C465.49 425.721 467.203 426.818 467.578 428.531Z" fill="#FAD86A"/>
<path d="M480.424 421.118C480.799 422.831 479.728 424.543 478.015 424.918C476.302 425.293 474.59 424.222 474.215 422.51C473.84 420.797 474.911 419.084 476.624 418.71C478.336 418.308 480.049 419.379 480.424 421.118Z" fill="#FAD86A"/>
<path d="M493.27 413.679C493.645 415.392 492.574 417.104 490.862 417.479C489.149 417.853 487.436 416.783 487.061 415.07C486.687 413.358 487.757 411.645 489.47 411.271C491.183 410.896 492.896 411.966 493.27 413.679Z" fill="#FAD86A"/>
<path d="M506.117 406.267C506.491 407.979 505.421 409.692 503.708 410.066C501.995 410.441 500.282 409.371 499.907 407.658C499.533 405.945 500.603 404.233 502.316 403.858C504.029 403.484 505.742 404.554 506.117 406.267Z" fill="#FAD86A"/>
<path d="M518.963 398.854C519.337 400.567 518.267 402.279 516.554 402.654C514.841 403.029 513.128 401.958 512.754 400.246C512.379 398.533 513.45 396.82 515.162 396.446C516.875 396.071 518.561 397.141 518.963 398.854Z" fill="#FAD86A"/>
<path d="M531.809 391.442C532.184 393.154 531.113 394.867 529.4 395.241C527.688 395.616 525.975 394.546 525.6 392.833C525.225 391.121 526.296 389.408 528.009 389.033C529.722 388.659 531.408 389.729 531.809 391.442Z" fill="#FAD86A"/>
<path d="M467.444 443.356C467.819 445.068 466.748 446.781 465.035 447.155C463.322 447.53 461.61 446.46 461.235 444.747C460.86 443.034 461.931 441.322 463.644 440.947C465.356 440.546 467.069 441.643 467.444 443.356Z" fill="#FAD86A"/>
<path d="M480.29 435.943C480.665 437.656 479.594 439.368 477.881 439.743C476.169 440.118 474.456 439.047 474.081 437.335C473.706 435.622 474.777 433.909 476.49 433.535C478.203 433.133 479.915 434.23 480.29 435.943Z" fill="#FAD86A"/>
<path d="M493.136 428.531C493.511 430.243 492.441 431.956 490.728 432.33C489.015 432.705 487.302 431.635 486.927 429.922C486.553 428.209 487.623 426.497 489.336 426.122C491.049 425.721 492.762 426.791 493.136 428.531Z" fill="#FAD86A"/>
<path d="M505.983 421.091C506.357 422.804 505.287 424.517 503.574 424.891C501.861 425.266 500.148 424.196 499.774 422.483C499.399 420.77 500.47 419.058 502.182 418.683C503.895 418.308 505.608 419.379 505.983 421.091Z" fill="#FAD86A"/>
<path d="M518.829 413.679C519.204 415.392 518.133 417.104 516.42 417.479C514.707 417.853 512.995 416.783 512.62 415.07C512.245 413.358 513.316 411.645 515.029 411.271C516.741 410.896 518.428 411.966 518.829 413.679Z" fill="#FAD86A"/>
<path d="M531.675 406.267C532.05 407.979 530.979 409.692 529.267 410.066C527.554 410.441 525.841 409.371 525.466 407.658C525.092 405.945 526.162 404.233 527.875 403.858C529.588 403.484 531.274 404.554 531.675 406.267Z" fill="#FAD86A"/>
<path d="M544.522 398.854C544.896 400.567 543.826 402.279 542.113 402.654C540.4 403.029 538.687 401.958 538.312 400.246C537.938 398.533 539.008 396.82 540.721 396.446C542.434 396.071 544.12 397.141 544.522 398.854Z" fill="#FAD86A"/>
<path d="M480.156 450.768C480.531 452.481 479.46 454.193 477.748 454.568C476.035 454.942 474.322 453.872 473.947 452.159C473.573 450.447 474.643 448.734 476.356 448.36C478.069 447.958 479.782 449.055 480.156 450.768Z" fill="#FAD86A"/>
<path d="M493.003 443.356C493.377 445.068 492.307 446.781 490.594 447.155C488.881 447.53 487.168 446.46 486.794 444.747C486.419 443.034 487.489 441.322 489.202 440.947C490.915 440.546 492.628 441.643 493.003 443.356Z" fill="#FAD86A"/>
<path d="M505.849 435.943C506.224 437.656 505.153 439.368 503.44 439.743C501.727 440.118 500.015 439.047 499.64 437.335C499.265 435.622 500.336 433.909 502.049 433.535C503.761 433.133 505.474 434.23 505.849 435.943Z" fill="#FAD86A"/>
<path d="M518.695 428.504C519.07 430.216 517.999 431.929 516.286 432.304C514.574 432.678 512.861 431.608 512.486 429.895C512.111 428.183 513.182 426.47 514.895 426.095C516.608 425.721 518.294 426.791 518.695 428.504Z" fill="#FAD86A"/>
<path d="M531.541 421.091C531.916 422.804 530.846 424.517 529.133 424.891C527.42 425.266 525.707 424.196 525.332 422.483C524.958 420.77 526.028 419.058 527.741 418.683C529.454 418.308 531.14 419.379 531.541 421.091Z" fill="#FAD86A"/>
<path d="M544.388 413.679C544.762 415.392 543.692 417.104 541.979 417.479C540.266 417.853 538.553 416.783 538.179 415.07C537.804 413.358 538.875 411.645 540.587 411.271C542.3 410.896 543.986 411.966 544.388 413.679Z" fill="#FAD86A"/>
<path d="M556.993 408.354C556.217 409.933 554.317 410.602 552.738 409.826C551.159 409.049 550.49 407.15 551.266 405.571C552.042 403.992 553.942 403.323 555.521 404.099C557.1 404.875 557.742 406.775 556.993 408.354Z" fill="#EB9A3E"/>
<path d="M492.869 458.18C493.243 459.893 492.173 461.606 490.46 461.98C488.747 462.355 487.034 461.285 486.66 459.572C486.285 457.859 487.356 456.147 489.068 455.772C490.781 455.371 492.494 456.468 492.869 458.18Z" fill="#FAD86A"/>
<path d="M505.715 450.768C506.09 452.481 505.019 454.193 503.306 454.568C501.594 454.942 499.881 453.872 499.506 452.159C499.131 450.447 500.202 448.734 501.915 448.36C503.628 447.958 505.34 449.055 505.715 450.768Z" fill="#FAD86A"/>
<path d="M518.561 443.355C518.936 445.068 517.866 446.781 516.153 447.155C514.44 447.53 512.727 446.46 512.352 444.747C511.978 443.034 513.048 441.322 514.761 440.947C516.474 440.546 518.16 441.643 518.561 443.355Z" fill="#FAD86A"/>
<path d="M531.408 435.916C531.782 437.629 530.712 439.342 528.999 439.716C527.286 440.091 525.573 439.02 525.199 437.308C524.824 435.595 525.894 433.883 527.607 433.508C529.32 433.133 531.006 434.204 531.408 435.916Z" fill="#FAD86A"/>
<path d="M544.254 428.504C544.629 430.216 543.558 431.929 541.845 432.304C540.132 432.678 538.42 431.608 538.045 429.895C537.67 428.183 538.741 426.47 540.454 426.095C542.166 425.721 543.852 426.791 544.254 428.504Z" fill="#FAD86A"/>
<path d="M557.1 421.091C557.475 422.804 556.404 424.517 554.691 424.891C552.979 425.266 551.266 424.196 550.891 422.483C550.516 420.77 551.587 419.058 553.3 418.683C554.986 418.308 556.699 419.379 557.1 421.091Z" fill="#FAD86A"/>
<path d="M569.92 413.679C570.294 415.392 569.224 417.104 567.511 417.479C565.798 417.853 564.085 416.783 563.711 415.07C563.336 413.358 564.407 411.645 566.119 411.271C567.832 410.896 569.545 411.966 569.92 413.679Z" fill="#FAD86A"/>
</g>
<path d="M25.3446 425.025L22.1598 420.743L153.566 323.418L282.377 171.583L380.571 0L385.228 2.64921L286.766 174.688L156.992 327.513L25.3446 425.025Z" fill="url(#paint36_linear_0_209)"/>
<path d="M154.824 335.701C160.53 335.701 165.155 331.076 165.155 325.372C165.155 319.667 160.53 315.042 154.824 315.042C149.119 315.042 144.494 319.667 144.494 325.372C144.494 331.076 149.119 335.701 154.824 335.701Z" fill="#FAD86A"/>
<path d="M294.876 173.136C294.876 178.835 290.246 183.465 284.545 183.465C278.844 183.465 274.214 178.835 274.214 173.136C274.214 167.436 278.844 162.806 284.545 162.806C290.246 162.806 294.876 167.436 294.876 173.136Z" fill="#FAD86A"/>
</g>
<defs>
<linearGradient id="paint0_linear_0_209" x1="357.541" y1="111.461" x2="491.842" y2="266.233" gradientUnits="userSpaceOnUse">
<stop stop-color="#FAE673"/>
<stop offset="1" stop-color="#EF183D"/>
</linearGradient>
<linearGradient id="paint1_linear_0_209" x1="344.95" y1="197.83" x2="532.651" y2="303.342" gradientUnits="userSpaceOnUse">
<stop stop-color="#FAE673"/>
<stop offset="1" stop-color="#EF183D"/>
</linearGradient>
<linearGradient id="paint2_linear_0_209" x1="395.297" y1="106.931" x2="450.274" y2="173.437" gradientUnits="userSpaceOnUse">
<stop stop-color="#FAE673"/>
<stop offset="1" stop-color="#EF183D"/>
</linearGradient>
<linearGradient id="paint3_linear_0_209" x1="414.541" y1="135.365" x2="547.19" y2="137.568" gradientUnits="userSpaceOnUse">
<stop stop-color="#FAE673"/>
<stop offset="1" stop-color="#EF183D"/>
</linearGradient>
<linearGradient id="paint4_linear_0_209" x1="333.089" y1="235.631" x2="510.193" y2="307.565" gradientUnits="userSpaceOnUse">
<stop stop-color="#FAE673"/>
<stop offset="1" stop-color="#EF183D"/>
</linearGradient>
<linearGradient id="paint5_linear_0_209" x1="344.572" y1="198.513" x2="532.272" y2="304.025" gradientUnits="userSpaceOnUse">
<stop stop-color="#F85E63"/>
<stop offset="1" stop-color="#87091E"/>
</linearGradient>
<linearGradient id="paint6_linear_0_209" x1="263.667" y1="243.79" x2="367.583" y2="363.545" gradientUnits="userSpaceOnUse">
<stop stop-color="#FAE673"/>
<stop offset="1" stop-color="#EF183D"/>
</linearGradient>
<linearGradient id="paint7_linear_0_209" x1="241.251" y1="310.935" x2="384.62" y2="391.527" gradientUnits="userSpaceOnUse">
<stop stop-color="#FAE673"/>
<stop offset="1" stop-color="#EF183D"/>
</linearGradient>
<linearGradient id="paint8_linear_0_209" x1="278.204" y1="250.798" x2="333.18" y2="317.304" gradientUnits="userSpaceOnUse">
<stop stop-color="#FAE673"/>
<stop offset="1" stop-color="#EF183D"/>
</linearGradient>
<linearGradient id="paint9_linear_0_209" x1="297.447" y1="279.232" x2="430.096" y2="281.435" gradientUnits="userSpaceOnUse">
<stop stop-color="#FAE673"/>
<stop offset="1" stop-color="#EF183D"/>
</linearGradient>
<linearGradient id="paint10_linear_0_209" x1="228.158" y1="346.147" x2="373.85" y2="405.322" gradientUnits="userSpaceOnUse">
<stop stop-color="#FAE673"/>
<stop offset="1" stop-color="#EF183D"/>
</linearGradient>
<linearGradient id="paint11_linear_0_209" x1="254.78" y1="319.433" x2="398.149" y2="400.025" gradientUnits="userSpaceOnUse">
<stop stop-color="#F85E63"/>
<stop offset="1" stop-color="#87091E"/>
</linearGradient>
<linearGradient id="paint12_linear_0_209" x1="169.501" y1="375.303" x2="243.412" y2="460.481" gradientUnits="userSpaceOnUse">
<stop stop-color="#FAE673"/>
<stop offset="1" stop-color="#EF183D"/>
</linearGradient>
<linearGradient id="paint13_linear_0_209" x1="137.383" y1="423.465" x2="236.977" y2="479.45" gradientUnits="userSpaceOnUse">
<stop stop-color="#FAE673"/>
<stop offset="1" stop-color="#EF183D"/>
</linearGradient>
<linearGradient id="paint14_linear_0_209" x1="161.11" y1="393.706" x2="216.087" y2="460.211" gradientUnits="userSpaceOnUse">
<stop stop-color="#FAE673"/>
<stop offset="1" stop-color="#EF183D"/>
</linearGradient>
<linearGradient id="paint15_linear_0_209" x1="180.354" y1="422.14" x2="313.002" y2="424.342" gradientUnits="userSpaceOnUse">
<stop stop-color="#FAE673"/>
<stop offset="1" stop-color="#EF183D"/>
</linearGradient>
<linearGradient id="paint16_linear_0_209" x1="123.075" y1="456.121" x2="237.748" y2="502.698" gradientUnits="userSpaceOnUse">
<stop stop-color="#FAE673"/>
<stop offset="1" stop-color="#EF183D"/>
</linearGradient>
<linearGradient id="paint17_linear_0_209" x1="164.645" y1="439.681" x2="264.24" y2="495.666" gradientUnits="userSpaceOnUse">
<stop stop-color="#F85E63"/>
<stop offset="1" stop-color="#87091E"/>
</linearGradient>
<linearGradient id="paint18_linear_0_209" x1="434.36" y1="398.355" x2="545.193" y2="526.082" gradientUnits="userSpaceOnUse">
<stop stop-color="#FAE673"/>
<stop offset="1" stop-color="#EF183D"/>
</linearGradient>
<linearGradient id="paint19_linear_0_209" x1="414.181" y1="469.876" x2="567.642" y2="556.141" gradientUnits="userSpaceOnUse">
<stop stop-color="#FAE673"/>
<stop offset="1" stop-color="#EF183D"/>
</linearGradient>
<linearGradient id="paint20_linear_0_209" x1="454.183" y1="402.737" x2="509.16" y2="469.243" gradientUnits="userSpaceOnUse">
<stop stop-color="#FAE673"/>
<stop offset="1" stop-color="#EF183D"/>
</linearGradient>
<linearGradient id="paint21_linear_0_209" x1="473.427" y1="431.171" x2="606.075" y2="433.374" gradientUnits="userSpaceOnUse">
<stop stop-color="#FAE673"/>
<stop offset="1" stop-color="#EF183D"/>
</linearGradient>
<linearGradient id="paint22_linear_0_209" x1="401.369" y1="505.678" x2="554.211" y2="567.757" gradientUnits="userSpaceOnUse">
<stop stop-color="#FAE673"/>
<stop offset="1" stop-color="#EF183D"/>
</linearGradient>
<linearGradient id="paint23_linear_0_209" x1="424.544" y1="476.595" x2="578.005" y2="562.86" gradientUnits="userSpaceOnUse">
<stop stop-color="#F85E63"/>
<stop offset="1" stop-color="#87091E"/>
</linearGradient>
<linearGradient id="paint24_linear_0_209" x1="362.156" y1="456.059" x2="413.749" y2="515.517" gradientUnits="userSpaceOnUse">
<stop stop-color="#FAE673"/>
<stop offset="1" stop-color="#EF183D"/>
</linearGradient>
<linearGradient id="paint25_linear_0_209" x1="322.822" y1="490.101" x2="389.854" y2="527.782" gradientUnits="userSpaceOnUse">
<stop stop-color="#FAE673"/>
<stop offset="1" stop-color="#EF183D"/>
</linearGradient>
<linearGradient id="paint26_linear_0_209" x1="336.709" y1="482.937" x2="391.686" y2="549.442" gradientUnits="userSpaceOnUse">
<stop stop-color="#FAE673"/>
<stop offset="1" stop-color="#EF183D"/>
</linearGradient>
<linearGradient id="paint27_linear_0_209" x1="355.953" y1="511.371" x2="488.602" y2="513.574" gradientUnits="userSpaceOnUse">
<stop stop-color="#FAE673"/>
<stop offset="1" stop-color="#EF183D"/>
</linearGradient>
<linearGradient id="paint28_linear_0_209" x1="307.608" y1="520.855" x2="399.208" y2="558.06" gradientUnits="userSpaceOnUse">
<stop stop-color="#FAE673"/>
<stop offset="1" stop-color="#EF183D"/>
</linearGradient>
<linearGradient id="paint29_linear_0_209" x1="360.299" y1="512.058" x2="427.331" y2="549.738" gradientUnits="userSpaceOnUse">
<stop stop-color="#F85E63"/>
<stop offset="1" stop-color="#87091E"/>
</linearGradient>
<linearGradient id="paint30_linear_0_209" x1="55.2539" y1="450.719" x2="125.44" y2="531.604" gradientUnits="userSpaceOnUse">
<stop stop-color="#FAE673"/>
<stop offset="1" stop-color="#EF183D"/>
</linearGradient>
<linearGradient id="paint31_linear_0_209" x1="21.9318" y1="496.524" x2="116.09" y2="549.453" gradientUnits="userSpaceOnUse">
<stop stop-color="#FAE673"/>
<stop offset="1" stop-color="#EF183D"/>
</linearGradient>
<linearGradient id="paint32_linear_0_209" x1="44.0155" y1="470.536" x2="98.9926" y2="537.042" gradientUnits="userSpaceOnUse">
<stop stop-color="#FAE673"/>
<stop offset="1" stop-color="#EF183D"/>
</linearGradient>
<linearGradient id="paint33_linear_0_209" x1="63.2596" y1="498.97" x2="195.908" y2="501.173" gradientUnits="userSpaceOnUse">
<stop stop-color="#FAE673"/>
<stop offset="1" stop-color="#EF183D"/>
</linearGradient>
<linearGradient id="paint34_linear_0_209" x1="7.47221" y1="528.863" x2="118.293" y2="573.875" gradientUnits="userSpaceOnUse">
<stop stop-color="#FAE673"/>
<stop offset="1" stop-color="#EF183D"/>
</linearGradient>
<linearGradient id="paint35_linear_0_209" x1="50.8988" y1="513.698" x2="145.057" y2="566.627" gradientUnits="userSpaceOnUse">
<stop stop-color="#F85E63"/>
<stop offset="1" stop-color="#87091E"/>
</linearGradient>
<linearGradient id="paint36_linear_0_209" x1="22.1625" y1="212.518" x2="385.227" y2="212.518" gradientUnits="userSpaceOnUse">
<stop stop-color="#FAE673"/>
<stop offset="1" stop-color="#EF183D"/>
</linearGradient>
<clipPath id="clip0_0_209">
<rect width="570" height="644" fill="white"/>
</clipPath>
</defs>
</svg>
