<svg width="1925" height="788" viewBox="0 0 1925 788" fill="none" xmlns="http://www.w3.org/2000/svg">
<path d="M1.5 716.724H1922.5" stroke="#2D3855" stroke-width="2"/>
<path d="M3 365.344H1924" stroke="#2D3855" stroke-width="2"/>
<path d="M1.5 535.234H1922.5" stroke="#2D3855" stroke-width="2"/>
<path d="M2 212.51H1923" stroke="#2D3855" stroke-width="2"/>
<path d="M1.5 623.25H1922.5" stroke="#2D3855" stroke-width="2"/>
<path d="M2 288.927H1923" stroke="#2D3855" stroke-width="2"/>
<path d="M1 449.948H1922" stroke="#2D3855" stroke-width="2"/>
<path d="M2 140.188H1923" stroke="#2D3855" stroke-width="2"/>
<path d="M2 69.2292H1923" stroke="#2D3855" stroke-width="2"/>
<path d="M895 1L881 782.906" stroke="#2D3855" stroke-width="2"/>
<path d="M824 3.72925L794.5 784.953" stroke="#2D3855" stroke-width="2"/>
<path d="M754.5 4.41138L709.5 783.588" stroke="#2D3855" stroke-width="2"/>
<path d="M685 4.41138L623.5 784.271" stroke="#2D3855" stroke-width="2"/>
<path d="M614 4.41138L537.5 782.906" stroke="#2D3855" stroke-width="2"/>
<path d="M543 3.72925L453 782.906" stroke="#2D3855" stroke-width="2"/>
<path d="M473.5 4.41138L367.5 782.224" stroke="#2D3855" stroke-width="2"/>
<path d="M402.5 5.77612L283.5 784.953" stroke="#2D3855" stroke-width="2"/>
<path d="M331 5.77612L197 782.224" stroke="#2D3855" stroke-width="2"/>
<path d="M263 4.41138L110 783.588" stroke="#2D3855" stroke-width="2"/>
<path d="M192.5 4.41138L25.5 779.495" stroke="#2D3855" stroke-width="2"/>
<path d="M122 3.72925L1 517.495" stroke="#2D3855" stroke-width="2"/>
<path d="M54 4.41138L2 197.5" stroke="#2D3855" stroke-width="2"/>
<path d="M964 5.09375V781.542" stroke="#2D3855" stroke-width="2"/>
<path d="M1035 3.72925L1050 782.906" stroke="#2D3855" stroke-width="2"/>
<path d="M1105.5 3.72925L1136 783.589" stroke="#2D3855" stroke-width="2"/>
<path d="M1175.5 4.41138L1221.5 782.906" stroke="#2D3855" stroke-width="2"/>
<path d="M1246 4.41138L1307 782.906" stroke="#2D3855" stroke-width="2"/>
<path d="M1316.5 4.41138L1393 782.906" stroke="#2D3855" stroke-width="2"/>
<path d="M1386.5 4.41138L1478 785.635" stroke="#2D3855" stroke-width="2"/>
<path d="M1456.5 4.41138L1562.5 784.953" stroke="#2D3855" stroke-width="2"/>
<path d="M1526.5 4.41138L1650 786.318" stroke="#2D3855" stroke-width="2"/>
<path d="M1597.5 5.09375L1735 784.271" stroke="#2D3855" stroke-width="2"/>
<path d="M1667.5 5.09375L1819.5 785.635" stroke="#2D3855" stroke-width="2"/>
<path d="M1737.5 4.41138L1906.5 787" stroke="#2D3855" stroke-width="2"/>
<path d="M1807.5 4.41138L1922 493.615" stroke="#2D3855" stroke-width="2"/>
<path d="M1878.5 4.41138L1923.5 179.76" stroke="#2D3855" stroke-width="2"/>
</svg>
