<svg width="68" height="68" viewBox="0 0 68 68" fill="none" xmlns="http://www.w3.org/2000/svg">
<path d="M58.0391 35.6139H51.3828C50.4768 35.6139 49.5998 35.7377 48.765 35.9654C47.1184 32.7285 43.7567 30.5044 39.8829 30.5044H28.1171C24.2433 30.5044 20.8816 32.7285 19.235 35.9654C18.4002 35.7377 17.5231 35.6139 16.6172 35.6139H9.96094C4.46848 35.6139 0 40.0824 0 45.5749V56.2155C0 59.511 2.68109 62.1921 5.97656 62.1921H62.0234C65.3189 62.1921 68 59.511 68 56.2155V45.5749C68 40.0824 63.5315 35.6139 58.0391 35.6139ZM18.1561 40.4656V58.2079H5.97656C4.87807 58.2079 3.98438 57.3142 3.98438 56.2157V45.575C3.98438 42.2795 6.66546 39.5984 9.96094 39.5984H16.6172C17.158 39.5984 17.6817 39.6719 18.1803 39.8072C18.166 40.0252 18.1561 40.2443 18.1561 40.4656ZM45.8595 58.2079H22.1405V40.4654C22.1405 37.17 24.8216 34.4889 28.1171 34.4889H39.8829C43.1784 34.4889 45.8595 37.17 45.8595 40.4654V58.2079ZM64.0156 56.2157C64.0156 57.3142 63.1219 58.2079 62.0234 58.2079H49.8439V40.4654C49.8439 40.244 49.834 40.0249 49.8197 39.8071C50.3183 39.6719 50.842 39.5983 51.3828 39.5983H58.0391C61.3345 39.5983 64.0156 42.2794 64.0156 45.5749V56.2157Z" fill="#EA611B"/>
<path d="M13.2892 16.8013C8.4085 16.8013 4.43781 20.772 4.43781 25.6527C4.43767 30.5335 8.4085 34.5042 13.2892 34.5042C18.1698 34.5042 22.1406 30.5335 22.1406 25.6527C22.1406 20.772 18.17 16.8013 13.2892 16.8013ZM13.2891 30.5198C10.6054 30.5198 8.42205 28.3365 8.42205 25.6527C8.42205 22.969 10.6054 20.7857 13.2891 20.7857C15.9728 20.7857 18.1561 22.969 18.1561 25.6527C18.1561 28.3365 15.9728 30.5198 13.2891 30.5198Z" fill="#EA611B"/>
<path d="M34 5.80775C27.4794 5.80775 22.1746 11.1126 22.1746 17.6331C22.1746 24.1537 27.4794 29.4585 34 29.4585C40.5205 29.4585 45.8253 24.1537 45.8253 17.6331C45.8253 11.1127 40.5205 5.80775 34 5.80775ZM34 25.4741C29.6764 25.4741 26.159 21.9567 26.159 17.6331C26.159 13.3097 29.6764 9.79213 34 9.79213C38.3236 9.79213 41.841 13.3095 41.841 17.6331C41.841 21.9567 38.3236 25.4741 34 25.4741Z" fill="#EA611B"/>
<path d="M54.7108 16.8013C49.8302 16.8013 45.8594 20.772 45.8594 25.6527C45.8595 30.5335 49.8302 34.5042 54.7108 34.5042C59.5915 34.5042 63.5622 30.5335 63.5622 25.6527C63.5622 20.772 59.5915 16.8013 54.7108 16.8013ZM54.7108 30.5198C52.0272 30.5198 49.8437 28.3365 49.8437 25.6527C49.8439 22.969 52.0272 20.7857 54.7108 20.7857C57.3945 20.7857 59.5778 22.969 59.5778 25.6527C59.5778 28.3365 57.3945 30.5198 54.7108 30.5198Z" fill="#EA611B"/>
</svg>
