<svg width="20" height="20" viewBox="0 0 20 20" fill="none" xmlns="http://www.w3.org/2000/svg">
<g clip-path="url(#clip0_0_168)">
<path d="M19.9998 10.0002C19.9998 10.9669 19.2164 11.7503 18.2492 11.7503H11.75V18.2499C11.75 19.2169 10.9663 20.0003 9.99973 20C9.51637 20 9.07886 19.8044 8.76244 19.4878C8.44563 19.1708 8.24978 18.7335 8.24999 18.2504L8.24973 11.7501H1.74967C1.26662 11.7501 0.829452 11.5545 0.512378 11.2374C0.196088 10.9211 0.000366276 10.4836 0.000366276 10.0002C0.000105023 9.03373 0.783516 8.25015 1.75059 8.25015H8.24999V1.75048C8.24999 0.783672 9.03384 0 10.0005 0C10.9668 0.000261253 11.7499 0.783149 11.7504 1.74983V8.25015H18.2505C19.217 8.25067 19.9994 9.03373 19.9998 10.0002Z" fill="#040F2A"/>
</g>
<defs>
<clipPath id="clip0_0_168">
<rect width="20" height="20" fill="white"/>
</clipPath>
</defs>
</svg>
