<svg width="17" height="17" viewBox="0 0 17 17" fill="none" xmlns="http://www.w3.org/2000/svg">
<path d="M4.19814 10.275C4.19969 10.2766 4.20127 10.2781 4.20286 10.2797L9.07248 15.1557C9.11117 15.1942 9.15392 15.2284 9.19997 15.2577L9.34018 15.3342L9.43579 15.366L9.50591 15.366C9.61335 15.3858 9.72351 15.3858 9.83098 15.366L9.89471 15.366L9.97119 15.366L10.0796 15.3087C10.1399 15.2759 10.1957 15.2352 10.2453 15.1876L15.134 10.2797C15.4614 9.95493 15.4635 9.42625 15.1388 9.09888C15.1372 9.09729 15.1356 9.09574 15.134 9.09416C14.804 8.77931 14.2849 8.77931 13.9549 9.09416L11.042 12.0006C10.9163 12.1239 10.7145 12.1219 10.5913 11.9962C10.534 11.9377 10.5014 11.8594 10.5002 11.7775L10.5002 2.28686C10.5003 1.8257 10.1265 1.45184 9.66531 1.45181C9.20415 1.45178 8.83032 1.82558 8.83026 2.28674L8.83026 2.28686L8.83026 11.7775C8.82778 11.9535 8.68311 12.0942 8.50713 12.0917C8.42527 12.0906 8.34696 12.058 8.28849 12.0006L5.38837 9.09416C5.05754 8.77524 4.53366 8.77524 4.20283 9.09416C3.87546 9.41892 3.87334 9.94761 4.19814 10.275Z" fill="#EA611B"/>
</svg>
