<svg width="17" height="17" viewBox="0 0 17 17" fill="none" xmlns="http://www.w3.org/2000/svg">
<path d="M4.19817 10.275C4.19972 10.2766 4.2013 10.2781 4.20289 10.2797L9.07251 15.1557C9.1112 15.1942 9.15395 15.2284 9.2 15.2577L9.34021 15.3342L9.43582 15.366L9.50594 15.366C9.61338 15.3858 9.72354 15.3858 9.83101 15.366L9.89474 15.366L9.97122 15.366L10.0796 15.3087C10.14 15.2759 10.1957 15.2352 10.2453 15.1876L15.1341 10.2797C15.4614 9.95493 15.4636 9.42625 15.1388 9.09888C15.1372 9.09729 15.1356 9.09574 15.1341 9.09416C14.8041 8.77931 14.2849 8.77931 13.9549 9.09416L11.042 12.0006C10.9164 12.1239 10.7146 12.1219 10.5914 11.9962C10.534 11.9377 10.5014 11.8594 10.5003 11.7775L10.5003 2.28686C10.5003 1.8257 10.1265 1.45184 9.66534 1.45181C9.20418 1.45178 8.83035 1.82558 8.83029 2.28674L8.83029 2.28686L8.83029 11.7775C8.82781 11.9535 8.68314 12.0942 8.50717 12.0917C8.4253 12.0906 8.34699 12.058 8.28852 12.0006L5.3884 9.09416C5.05757 8.77524 4.53369 8.77524 4.20286 9.09416C3.87549 9.41892 3.87337 9.94761 4.19817 10.275Z" fill="#EA611B"/>
</svg>
